<svg id="Layer_1" enable-background="new 0 0 256 256" height="512" viewBox="0 0 256 256" width="512" xmlns="http://www.w3.org/2000/svg"><path d="m252 225.982h-248l53.643-69.825h140.714z" fill="#526faa"/><path d="m198.357 156.157h-10l53.643 69.825h10z" fill="#34518c"/><path d="m195.149 176.2c6.197 0 12.101-.524 17.476-1.471l-14.268-18.572h-48.205c-.056.385-.094.773-.094 1.165 0 10.426 20.188 18.878 45.091 18.878z" fill="#7bac51"/><path d="m184.643 214.557c0-21.184-31.595-38.357-70.571-38.357-38.975 0-70.57 17.173-70.57 38.357 0 3.979 1.115 7.816 3.184 11.424h134.774c2.067-3.608 3.183-7.445 3.183-11.424z" fill="#f4efed"/><path d="m57.643 156.157h10l-53.643 69.825h-10z" fill="#708dc8"/><path d="m48.968 182.55c-.426 0-.854-.135-1.218-.414-.876-.673-1.04-1.928-.367-2.804l6.684-8.7c.672-.877 1.93-1.041 2.805-.368.876.673 1.04 1.928.367 2.804l-6.684 8.7c-.394.513-.988.782-1.587.782z" fill="#690589"/><path d="m181.459 227.981h-134.773c-.717 0-1.379-.384-1.735-1.005-2.288-3.992-3.448-8.17-3.448-12.418 0-11.013 7.712-21.269 21.714-28.88 13.617-7.401 31.679-11.478 50.856-11.478s37.238 4.076 50.855 11.478c14.003 7.611 21.715 17.867 21.715 28.88 0 4.249-1.16 8.426-3.448 12.418-.357.622-1.019 1.005-1.736 1.005zm-133.584-4h132.395c1.575-3.067 2.373-6.232 2.373-9.424 0-20.047-30.761-36.357-68.57-36.357s-68.57 16.31-68.57 36.357c-.001 3.192.797 6.357 2.372 9.424z" fill="#690589"/><path d="m212.625 174.729-14.268-18.572h-10l15.14 19.707c3.169-.249 6.23-.624 9.128-1.135z" fill="#5d8e33"/><path d="m195.149 178.2c-26.406 0-47.091-9.171-47.091-20.879 0-.452.038-.928.115-1.455.144-.982.986-1.709 1.979-1.709h48.204c.621 0 1.207.289 1.586.782l14.269 18.572c.426.554.531 1.291.278 1.943s-.829 1.124-1.518 1.245c-5.656.996-11.652 1.501-17.822 1.501zm-43.031-20.043c1.132 7.901 18.135 16.043 43.031 16.043 4.752 0 9.392-.311 13.837-.924l-11.615-15.119z" fill="#690589"/><path d="m252 227.981h-248c-.762 0-1.457-.433-1.794-1.116-.337-.684-.256-1.499.208-2.103l53.644-69.825c.379-.493.965-.782 1.586-.782h140.713c.621 0 1.207.289 1.586.782l53.644 69.825c.464.604.545 1.419.208 2.103-.338.684-1.033 1.116-1.795 1.116zm-243.941-4h239.883l-50.57-65.825h-138.743z" fill="#690589"/><path d="m128 30.018c41.699 0 67.76 45.14 46.911 81.252l-46.911 81.253-46.911-81.253c-20.849-36.112 5.212-81.252 46.911-81.252z" fill="#ff4397"/><path d="m128 30.018c-1.655 0-3.276.096-4.88.235 38.341 3.161 58.018 41.57 41.772 81.017l-36.266 80.168 46.285-80.168c20.849-36.112-5.212-81.252-46.911-81.252z" fill="#e12579"/><path d="m128 30.018c1.655 0 3.276.096 4.88.235-38.341 3.161-58.018 41.57-41.772 81.017l36.266 80.168-46.285-80.168c-20.849-36.112 5.212-81.252 46.911-81.252z" fill="#ff61b5"/><path d="m128 194.522c-.715 0-1.375-.381-1.732-1l-46.911-81.252c-10.152-17.585-10.152-38.583 0-56.167 10.153-17.585 28.337-28.084 48.643-28.084s38.489 10.499 48.643 28.083c10.153 17.585 10.153 38.583.001 56.168l-46.911 81.252c-.358.619-1.018 1-1.733 1zm0-162.503c-18.86 0-35.749 9.751-45.18 26.084-9.43 16.333-9.43 35.834.001 52.167l45.179 78.252 45.179-78.252c9.43-16.333 9.43-35.835 0-52.168-9.43-16.332-26.32-26.083-45.179-26.083z" fill="#690589"/><ellipse cx="128" cy="83.91" fill="#f4efed" rx="33.617" ry="33.617" transform="matrix(.23 -.973 .973 .23 16.927 189.207)"/><path d="m128 119.527c-19.64 0-35.617-15.978-35.617-35.617s15.977-35.617 35.617-35.617 35.617 15.978 35.617 35.617-15.977 35.617-35.617 35.617zm0-67.234c-17.434 0-31.617 14.183-31.617 31.617s14.184 31.617 31.617 31.617 31.617-14.184 31.617-31.617-14.183-31.617-31.617-31.617z" fill="#690589"/></svg>